# xmcd CD database file
#
# Track frame offsets:
#	150
#	18215
#	44000
#	65162
#	93677
#	112550
#	135677
#	157725
#	179380
#	191487
#	203007
#	214315
#	228745
#	240845
#	253337
#	266455
#	278637
#	287380
#
# Disc length: 4013 seconds
#
# Revision: 1
# Processed by: cddbd v1.5.2PL0 Copyright (c) Steve Scherf et al.
# Submitted via: CDex 1.51
#
DISCID=fd0fab12
DTITLE=Sarah Vaughan - Vol. 165 - Sassy  1950 - 1954
DYEAR=1958
DGENRE=Jazz
TTITLE0=Lullaby of Birdland
TTITLE1=September Song
TTITLE2=You're Not The Kind
TTITLE3=April in Paris
TTITLE4=He's My Guy
TTITLE5=I'm Glad There is You
TTITLE6=It's Crazy
TTITLE7=Embraceable You
TTITLE8=They Can't Take That Away From Me
TTITLE9=Polka Dots and Moonbeams
TTITLE10=If I Knew Then (What I Know Now)
TTITLE11=Body And Soul
TTITLE12=Shulie A Bop
TTITLE13=Prelude To A Kiss
TTITLE14=Mean To Me
TTITLE15=Pinky
TTITLE16=Oooh, What-cha Doin' To Me
TTITLE17=Thinking Of You
EXTD=YEAR: 1958
EXTT0=
EXTT1=
EXTT2=
EXTT3=
EXTT4=
EXTT5=
EXTT6=
EXTT7=
EXTT8=
EXTT9=
EXTT10=
EXTT11=
EXTT12=
EXTT13=
EXTT14=
EXTT15=
EXTT16=
EXTT17=
PLAYORDER=
